<?xml version="1.0" encoding="UTF-8" standalone="no"?>
<!-- Created with Inkscape (http://www.inkscape.org/) -->

<svg
   xmlns:dc="http://purl.org/dc/elements/1.1/"
   xmlns:cc="http://creativecommons.org/ns#"
   xmlns:rdf="http://www.w3.org/1999/02/22-rdf-syntax-ns#"
   xmlns:svg="http://www.w3.org/2000/svg"
   xmlns="http://www.w3.org/2000/svg"
   xmlns:sodipodi="http://sodipodi.sourceforge.net/DTD/sodipodi-0.dtd"
   xmlns:inkscape="http://www.inkscape.org/namespaces/inkscape"
   width="512"
   height="512"
   viewBox="0 0 135.46666 135.46667"
   version="1.1"
   id="svg8"
   inkscape:version="0.92.4 5da689c313, 2019-01-14"
   sodipodi:docname="hagrid.svg"
   inkscape:export-filename="/home/saehrimnir/Projects/hagrid/hagrid.png"
   inkscape:export-xdpi="96"
   inkscape:export-ydpi="96">
  <defs
     id="defs2" />
  <sodipodi:namedview
     id="base"
     pagecolor="#ffffff"
     bordercolor="#666666"
     borderopacity="1.0"
     inkscape:pageopacity="0.0"
     inkscape:pageshadow="2"
     inkscape:zoom="2.8"
     inkscape:cx="218.51674"
     inkscape:cy="265.97146"
     inkscape:document-units="mm"
     inkscape:current-layer="layer1"
     showgrid="true"
     units="px"
     inkscape:window-width="3840"
     inkscape:window-height="2036"
     inkscape:window-x="0"
     inkscape:window-y="0"
     inkscape:window-maximized="1"
     inkscape:snap-global="false">
    <inkscape:grid
       type="xygrid"
       id="grid4518"
       spacingx="11.288889"
       spacingy="11.288889"
       enabled="true"
       snapvisiblegridlinesonly="true" />
  </sodipodi:namedview>
  <metadata
     id="metadata5">
    <rdf:RDF>
      <cc:Work
         rdf:about="">
        <dc:format>image/svg+xml</dc:format>
        <dc:type
           rdf:resource="http://purl.org/dc/dcmitype/StillImage" />
        <dc:title></dc:title>
      </cc:Work>
    </rdf:RDF>
  </metadata>
  <g
     inkscape:label="Ebene 1"
     inkscape:groupmode="layer"
     id="layer1"
     transform="translate(0,-161.53332)">
    <path
       style="fill:#4b3221;fill-opacity:1;stroke:#000000;stroke-width:5.00000006;stroke-linecap:butt;stroke-linejoin:miter;stroke-opacity:1;stroke-miterlimit:4;stroke-dasharray:none"
       d="M 256 85.333984 C 1.2598426e-05 85.333984 -3.7895613e-14 170.66602 0 170.66602 L 0 512 L 512 512 L 512 85.333984 L 256 85.333984 z "
       transform="matrix(0.26458333,0,0,0.26458333,0,161.53332)"
       id="path4564" />
    <path
       style="fill:#2d2119;fill-opacity:1;stroke:#000000;stroke-width:5.00000006;stroke-linecap:butt;stroke-linejoin:miter;stroke-opacity:1;stroke-miterlimit:4;stroke-dasharray:none"
       d="M 256 85.333984 C 1.5823623e-05 85.333984 -1.1368684e-13 170.66602 0 170.66602 L 0 384 L 512 384 L 512 85.333984 L 256 85.333984 z "
       transform="matrix(0.26458333,0,0,0.26458333,0,161.53332)"
       id="path4706" />
    <path
       style="fill:#c69e84;fill-opacity:1;stroke:#000000;stroke-width:1.32291667;stroke-linecap:butt;stroke-linejoin:miter;stroke-opacity:1;stroke-miterlimit:4;stroke-dasharray:none"
       d="m 45.155554,229.26666 c 0,45.15555 10e-7,45.15555 22.577778,45.15555 22.577777,0 22.577777,0 22.577777,-45.15555"
       id="path4562"
       inkscape:connector-curvature="0"
       sodipodi:nodetypes="csc" />
    <path
       style="fill:#4b3221;fill-opacity:1;stroke:#000000;stroke-width:5.00000006;stroke-linecap:butt;stroke-linejoin:miter;stroke-opacity:1;stroke-miterlimit:4;stroke-dasharray:none"
       d="M 379.25977 0 L 493.03711 512 L 512 512 L 512 0 L 379.25977 0 z "
       transform="matrix(0.26458333,0,0,0.26458333,0,161.53332)"
       id="path4528-3" />
    <path
       style="fill:#4b3221;fill-opacity:1;stroke:#000000;stroke-width:5.00000006;stroke-linecap:butt;stroke-linejoin:miter;stroke-opacity:1;stroke-miterlimit:4;stroke-dasharray:none"
       d="M 0.9921875,0.9921875 V 511.00781 H 19.183594 L 128,-5.0393703e-6 Z"
       id="path4528"
       inkscape:connector-curvature="0"
       sodipodi:nodetypes="ccccc"
       transform="matrix(0.26458333,0,0,0.26458333,0,161.53332)" />
    <path
       style="fill:#e9bb99;stroke:#000000;stroke-width:5.00000006;stroke-linecap:butt;stroke-linejoin:miter;stroke-opacity:1;stroke-miterlimit:4;stroke-dasharray:none;fill-opacity:1"
       d="M 128,-5.0393703e-6 C 105.90103,98.649985 85.333984,211.74036 85.333984,256 c 0,85.3333 85.332036,85.33398 85.332036,85.33398 h 170.66796 c 0,0 85.33204,-6.4e-4 85.33204,-85.33398 0,-44.25964 -22.95377,-157.35001 -45.05274,-256 z"
       transform="matrix(0.26458333,0,0,0.26458333,0,161.53332)"
       id="path4526"
       inkscape:connector-curvature="0"
       sodipodi:nodetypes="csccscc" />
    <path
       style="fill:#c39f87;fill-opacity:1;stroke:none;stroke-width:0.99999994px;stroke-linecap:butt;stroke-linejoin:miter;stroke-opacity:1"
       d="m 151.78516,18.785156 -30,16.78711 c 54.0406,76.362944 135.09068,66.721874 135.09068,66.721874 L 256.25,80.214844 l -0.0748,22.495366 c 0,0 81.00414,3.51955 134.53965,-66.782476 l -30,-16.785156 -104.28906,24.203125 0.002,-0.273437 z"
       id="path4797"
       inkscape:connector-curvature="0"
       sodipodi:nodetypes="cccccccccc"
       transform="matrix(0.26458333,0,0,0.26458333,0,161.53332)" />
    <path
       style="fill:#65432c;stroke:#000000;stroke-width:5.00000006;stroke-linecap:butt;stroke-linejoin:miter;stroke-opacity:1;stroke-miterlimit:4;stroke-dasharray:none;fill-opacity:1"
       d="M 85.333335,-5.0393703e-6 C 170.66666,85.333337 192.39629,85.333984 256,85.333984 c 63.60371,0 85.33271,-6.42e-4 170.66602,-85.333984 z"
       transform="matrix(0.26458333,0,0,0.26458333,0,161.53332)"
       id="path4524"
       inkscape:connector-curvature="0"
       sodipodi:nodetypes="cscc" />
    <path
       inkscape:connector-curvature="0"
       id="path4793"
       d="m 90.626449,240.34135 c 6.803572,12.85119 0,13.79614 0,13.79614 l -19.276786,-2.83483 -3.023808,-7.55952 z"
       style="fill:#65432c;fill-opacity:0.40943879;stroke:none;stroke-width:0.26458332px;stroke-linecap:butt;stroke-linejoin:miter;stroke-opacity:1"
       sodipodi:nodetypes="ccccc" />
    <path
       style="fill:none;stroke:#000000;stroke-width:1.32291667;stroke-linecap:butt;stroke-linejoin:miter;stroke-opacity:1;stroke-miterlimit:4;stroke-dasharray:none"
       d="m 45.155556,240.55554 c 0,11.28889 22.577776,11.28889 22.577776,11.28889 0,0 22.57778,0 22.57778,-11.28889"
       id="path4712"
       inkscape:connector-curvature="0"
       sodipodi:nodetypes="ccc" />
    <path
       style="fill:#65432c;fill-opacity:0.40943879;stroke:none;stroke-width:0.26458332px;stroke-linecap:butt;stroke-linejoin:miter;stroke-opacity:1"
       d="m 44.60119,240.39805 c -6.803572,12.85119 3.779762,10.29986 3.779762,10.29986 l 24.946429,10.58333 -6.425597,-17.4814 z"
       id="path4791"
       inkscape:connector-curvature="0"
       sodipodi:nodetypes="ccccc" />
    <path
       style="fill:#65432c;fill-opacity:1;stroke:#000000;stroke-width:1.32291667;stroke-linecap:butt;stroke-linejoin:miter;stroke-opacity:1;stroke-miterlimit:4;stroke-dasharray:none"
       d="m 67.733332,251.84443 c 22.577777,-22.57777 67.733328,22.57778 67.733328,22.57778 v 0 c -22.57777,0 -67.733326,11.28889 -67.733328,-22.57778 z"
       id="path4545-6"
       inkscape:connector-curvature="0"
       sodipodi:nodetypes="cccc" />
    <path
       style="fill:#65432c;fill-opacity:1;stroke:#000000;stroke-width:1.32291667;stroke-linecap:butt;stroke-linejoin:miter;stroke-opacity:1;stroke-miterlimit:4;stroke-dasharray:none"
       d="M 67.733331,251.84443 C 45.155554,229.26666 1.0000001e-6,274.42221 1.0000001e-6,274.42221 v 0 C 22.577778,274.42221 67.733334,285.7111 67.733331,251.84443 Z"
       id="path4545"
       inkscape:connector-curvature="0"
       sodipodi:nodetypes="cccc" />
    <path
       style="fill:none;stroke:#000000;stroke-width:0.26458332px;stroke-linecap:butt;stroke-linejoin:miter;stroke-opacity:1"
       d="m 57.263392,251.73734 c -15.686011,-3.02381 -29.954611,9.16592 -29.954611,9.16592"
       id="path4731"
       inkscape:connector-curvature="0" />
    <path
       style="fill:none;stroke:#000000;stroke-width:0.26458332px;stroke-linecap:butt;stroke-linejoin:miter;stroke-opacity:1"
       d="m 59.909225,258.6354 c -6.898066,15.49703 -40.254463,11.81176 -40.254463,11.81176"
       id="path4733"
       inkscape:connector-curvature="0" />
    <path
       style="fill:none;stroke:#000000;stroke-width:0.26458332px;stroke-linecap:butt;stroke-linejoin:miter;stroke-opacity:1"
       d="m 58.680802,255.70609 c -13.32366,0.56696 -18.70982,5.95312 -18.70982,5.95312"
       id="path4735"
       inkscape:connector-curvature="0" />
    <path
       style="fill:none;stroke:#000000;stroke-width:0.26458332px;stroke-linecap:butt;stroke-linejoin:miter;stroke-opacity:1"
       d="m 45.640624,264.02156 c -15.591517,6.04762 -13.418155,4.34673 -13.418155,4.34673"
       id="path4737"
       inkscape:connector-curvature="0" />
    <path
       style="fill:none;stroke:#000000;stroke-width:0.26458332px;stroke-linecap:butt;stroke-linejoin:miter;stroke-opacity:1"
       d="m 32.600447,261.94269 c -13.51265,4.25224 -19.938245,8.40997 -19.938245,8.40997"
       id="path4739"
       inkscape:connector-curvature="0" />
    <path
       style="fill:none;stroke:#000000;stroke-width:0.26458332px;stroke-linecap:butt;stroke-linejoin:miter;stroke-opacity:1"
       d="m 73.79985,252.87127 c 12.945684,-4.53572 22.111607,-1.32292 22.111607,-1.32292"
       id="path4741"
       inkscape:connector-curvature="0" />
    <path
       style="fill:none;stroke:#000000;stroke-width:0.26458332px;stroke-linecap:butt;stroke-linejoin:miter;stroke-opacity:1"
       d="m 99.502231,253.06025 c 10.677829,4.44122 18.615329,11.05581 18.615329,11.05581"
       id="path4743"
       inkscape:connector-curvature="0" />
    <path
       style="fill:none;stroke:#000000;stroke-width:0.26458332px;stroke-linecap:butt;stroke-linejoin:miter;stroke-opacity:1"
       d="m 74.839284,256.55653 c 4.252232,6.80357 9.638392,10.11087 9.638392,10.11087"
       id="path4745"
       inkscape:connector-curvature="0" />
    <path
       style="fill:none;stroke:#000000;stroke-width:0.26458332px;stroke-linecap:butt;stroke-linejoin:miter;stroke-opacity:1"
       d="m 85.989582,257.029 c 10.016368,-1.32291 26.458338,8.12649 26.458338,8.12649"
       id="path4747"
       inkscape:connector-curvature="0" />
    <path
       style="fill:none;stroke:#000000;stroke-width:0.26458332px;stroke-linecap:butt;stroke-linejoin:miter;stroke-opacity:1"
       d="m 89.958332,264.02156 c 11.150298,8.22098 30.143598,6.61459 30.143598,6.61459"
       id="path4749"
       inkscape:connector-curvature="0" />
    <path
       style="fill:none;stroke:#000000;stroke-width:0.26458332px;stroke-linecap:butt;stroke-linejoin:miter;stroke-opacity:1"
       d="M 56.790923,178.69344 C 36.947173,170.18897 31.56101,160.73957 31.56101,160.73957"
       id="path4751"
       inkscape:connector-curvature="0" />
    <path
       style="fill:none;stroke:#000000;stroke-width:0.26458332px;stroke-linecap:butt;stroke-linejoin:miter;stroke-opacity:1"
       d="M 63.02753,179.44939 C 55.656993,169.05505 55.751489,162.72394 55.751489,162.72394"
       id="path4753"
       inkscape:connector-curvature="0" />
    <path
       style="fill:none;stroke:#000000;stroke-width:0.26458332px;stroke-linecap:butt;stroke-linejoin:miter;stroke-opacity:1"
       d="M 58.586308,175.95311 C 50.176339,168.96055 46.774552,161.96799 46.774552,161.96799"
       id="path4755"
       inkscape:connector-curvature="0" />
    <path
       style="fill:none;stroke:#000000;stroke-width:0.26458332px;stroke-linecap:butt;stroke-linejoin:miter;stroke-opacity:1"
       d="m 67.752231,180.01636 c 11.339285,-8.40997 11.90625,-19.37128 11.90625,-19.37128"
       id="path4757"
       inkscape:connector-curvature="0" />
    <path
       style="fill:none;stroke:#000000;stroke-width:0.26458332px;stroke-linecap:butt;stroke-linejoin:miter;stroke-opacity:1"
       d="M 72.287947,179.63838 C 90.430801,176.1421 102.43155,164.61383 102.43155,164.61383"
       id="path4759"
       inkscape:connector-curvature="0" />
    <path
       style="fill:none;stroke:#000000;stroke-width:0.26458332px;stroke-linecap:butt;stroke-linejoin:miter;stroke-opacity:1"
       d="m 74.366815,176.61457 c 12.284226,-6.3311 14.363094,-12.47321 14.363094,-12.47321"
       id="path4761"
       inkscape:connector-curvature="0" />
    <path
       style="fill:none;stroke:#000000;stroke-width:0.26458332px;stroke-linecap:butt;stroke-linejoin:miter;stroke-opacity:1"
       d="M 27.214285,176.99255 C 3.5907739,173.96874 1.8898809,168.77156 1.8898809,168.77156"
       id="path4763"
       inkscape:connector-curvature="0" />
    <path
       style="fill:none;stroke:#000000;stroke-width:0.26458332px;stroke-linecap:butt;stroke-linejoin:miter;stroke-opacity:1"
       d="M 25.418899,180.9613 C 3.7797618,181.33927 1.6063988,175.48064 1.6063988,175.48064"
       id="path4765"
       inkscape:connector-curvature="0" />
    <path
       style="fill:none;stroke:#000000;stroke-width:0.26458332px;stroke-linecap:butt;stroke-linejoin:miter;stroke-opacity:1"
       d="M 25.324405,186.06397 C 3.2127975,190.31621 1.7953869,182.66219 1.7953869,182.66219"
       id="path4767"
       inkscape:connector-curvature="0" />
    <path
       style="fill:none;stroke:#000000;stroke-width:0.26458332px;stroke-linecap:butt;stroke-linejoin:miter;stroke-opacity:1;fill-opacity:1"
       d="m 107.72321,176.1421 c 25.22991,0.28348 25.32441,-6.3311 25.32441,-6.3311"
       id="path4769"
       inkscape:connector-curvature="0" />
    <path
       style="fill:none;stroke:#000000;stroke-width:0.26458332px;stroke-linecap:butt;stroke-linejoin:miter;stroke-opacity:1"
       d="m 108.76265,180.58332 c 20.6942,2.92932 24.94642,-3.02381 24.94642,-3.02381"
       id="path4771"
       inkscape:connector-curvature="0" />
    <path
       style="fill:none;stroke:#000000;stroke-width:0.26458332px;stroke-linecap:butt;stroke-linejoin:miter;stroke-opacity:1"
       d="m 109.5186,185.21353 c 19.65476,5.38616 23.907,-0.75595 23.907,-0.75595"
       id="path4773"
       inkscape:connector-curvature="0" />
    <path
       style="fill:none;stroke:#000000;stroke-width:0.26458332px;stroke-linecap:butt;stroke-linejoin:miter;stroke-opacity:1"
       d="m 110.93601,190.59969 c 21.26116,11.71726 21.35565,20.31622 21.35565,20.31622"
       id="path4775"
       inkscape:connector-curvature="0" />
    <path
       style="fill:none;stroke:#000000;stroke-width:0.26458332px;stroke-linecap:butt;stroke-linejoin:miter;stroke-opacity:1"
       d="m 115.8497,202.60043 c 17.10342,19.65476 15.49702,31.75 15.49702,31.75"
       id="path4777"
       inkscape:connector-curvature="0" />
    <path
       style="fill:none;stroke:#000000;stroke-width:0.26458332px;stroke-linecap:butt;stroke-linejoin:miter;stroke-opacity:1"
       d="m 117.26711,214.12871 c 9.82738,28.72619 8.032,39.40401 8.032,39.40401"
       id="path4779"
       inkscape:connector-curvature="0" />
    <path
       style="fill:none;stroke:#000000;stroke-width:0.26458332px;stroke-linecap:butt;stroke-linejoin:miter;stroke-opacity:1"
       d="M 21.828125,194.37945 C 6.9925593,198.82067 5.4806548,213.65624 5.4806548,213.65624"
       id="path4781"
       inkscape:connector-curvature="0" />
    <path
       style="fill:none;stroke:#000000;stroke-width:0.26458332px;stroke-linecap:butt;stroke-linejoin:miter;stroke-opacity:1"
       d="M 18.426339,204.96278 C 5.9531249,232.55504 5.1971725,249.0915 5.1971725,249.0915"
       id="path4783"
       inkscape:connector-curvature="0" />
    <path
       style="fill:none;stroke:#000000;stroke-width:0.26458332px;stroke-linecap:butt;stroke-linejoin:miter;stroke-opacity:1"
       d="m 51.971725,276.49478 c -7.559524,13.04017 -6.614583,19.0878 -6.614583,19.0878"
       id="path4785"
       inkscape:connector-curvature="0" />
    <path
       style="fill:none;stroke:#000000;stroke-width:0.26458332px;stroke-linecap:butt;stroke-linejoin:miter;stroke-opacity:1"
       d="m 83.060266,275.92781 c 9.638393,13.32366 7.748514,19.46578 7.748514,19.46578"
       id="path4787"
       inkscape:connector-curvature="0" />
    <path
       style="fill:#e9bb99;stroke:#000000;stroke-width:1.32291663;stroke-linecap:butt;stroke-linejoin:miter;stroke-miterlimit:4;stroke-dasharray:none;stroke-opacity:1;fill-opacity:1"
       d="m 45.950824,240.52515 c 0,11.66767 7.621777,4.72197 14.523774,11.66767 4.538675,4.56741 5.254227,3.87314 7.06321,3.894 1.822007,0.021 2.541656,0.041 7.460562,-3.894 7.501812,-6.0013 14.523774,0 14.523774,-11.66767"
       id="path4789"
       inkscape:connector-curvature="0"
       sodipodi:nodetypes="csssc" />
    <path
       style="fill:none;stroke:#000000;stroke-width:0.26458332px;stroke-linecap:butt;stroke-linejoin:miter;stroke-opacity:1"
       d="m 38.486812,277.95703 c -8.084904,13.4303 -7.082644,17.10525 -7.082644,17.10525"
       id="path4802"
       inkscape:connector-curvature="0" />
    <path
       style="fill:none;stroke:#000000;stroke-width:0.26458332px;stroke-linecap:butt;stroke-linejoin:miter;stroke-opacity:1"
       d="m 26.125596,277.75658 c -8.953529,11.82668 -8.352173,17.50615 -8.352173,17.50615"
       id="path4804"
       inkscape:connector-curvature="0" />
    <path
       style="fill:none;stroke:#000000;stroke-width:0.26458332px;stroke-linecap:butt;stroke-linejoin:miter;stroke-opacity:1"
       d="m 96.68475,278.09067 c 10.89123,6.5481 10.62396,16.23662 10.62396,16.23662"
       id="path4806"
       inkscape:connector-curvature="0" />
    <path
       style="fill:none;stroke:#000000;stroke-width:0.26458332px;stroke-linecap:butt;stroke-linejoin:miter;stroke-opacity:1"
       d="m 114.92589,277.55613 c 3.34087,6.68174 3.54133,12.89575 3.54133,12.89575"
       id="path4808"
       inkscape:connector-curvature="0" />
  </g>
</svg>
